# xmcd
#
# Track frame offsets: 
#        150
#        12605
#        26372
#        37037
#        47405
#        60970
#        75335
#        89445
#        102720
#        116304
#        128545
#        143882
#
# Disc length: 2102 seconds
#
# Revision: 3
# Processed by: cddbd v1.5.1PL0 Copyright (c) Steve Scherf et al.
# Submitted via: ExactAudioCopy v0.95a5
#
DISCID=8f08340c
DTITLE=The Electric Amish - Milkin' It
DYEAR=1996
DGENRE=Satire
TTITLE0=I Want To Dress In Black and White
TTITLE1=Graeber Be Good
TTITLE2=I Want To Hoe Your Land
TTITLE3=For Your Mule
TTITLE4=No More Menonite Guy
TTITLE5=Proud Gretta
TTITLE6=Big Ol' Horse And Buggy
TTITLE7=The Parson's Back
TTITLE8=He's From Goshen
TTITLE9=Heathen
TTITLE10=Mush
TTITLE11=Christmas Time In Amish Land
EXTD=Some of the stuff from The Bob and Tom Show out of WFBQ in Indianap
EXTD=olis, IN
EXTT0=
EXTT1=
EXTT2=
EXTT3=
EXTT4=
EXTT5=
EXTT6=
EXTT7=
EXTT8=
EXTT9=
EXTT10=
EXTT11=
PLAYORDER=
